<svg width="137" height="137" viewBox="0 0 137 137" fill="none" xmlns="http://www.w3.org/2000/svg">
<path d="M39.9584 17.125C44.5002 17.125 48.856 19.0295 52.0676 22.4195C55.2791 25.8094 57.0834 30.4072 57.0834 35.2014V107.507C57.0834 112.301 55.2791 116.899 52.0676 120.289C48.856 123.679 44.5002 125.583 39.9584 125.583C35.4165 125.583 31.0607 123.679 27.8492 120.289C24.6376 116.899 22.8334 112.301 22.8334 107.507V35.2014C22.8334 30.4072 24.6376 25.8094 27.8492 22.4195C31.0607 19.0295 35.4165 17.125 39.9584 17.125ZM97.0417 17.125C101.583 17.125 105.939 19.0295 109.151 22.4195C112.362 25.8094 114.167 30.4072 114.167 35.2014V107.507C114.167 112.301 112.362 116.899 109.151 120.289C105.939 123.679 101.583 125.583 97.0417 125.583C92.5002 125.583 88.1441 123.679 84.9326 120.289C81.7211 116.899 79.9167 112.301 79.9167 107.507V35.2014C79.9167 30.4072 81.7211 25.8094 84.9326 22.4195C88.1441 19.0295 92.5002 17.125 97.0417 17.125Z" fill="white" fill-opacity="0.8"/>
</svg>
