<svg width="24" height="24" viewBox="0 0 24 24" fill="none" xmlns="http://www.w3.org/2000/svg">
<path d="M7 3C7.79565 3 8.55871 3.33363 9.12132 3.9275C9.68393 4.52136 10 5.32681 10 6.16667V18.8333C10 19.6732 9.68393 20.4786 9.12132 21.0725C8.55871 21.6664 7.79565 22 7 22C6.20435 22 5.44129 21.6664 4.87868 21.0725C4.31607 20.4786 4 19.6732 4 18.8333V6.16667C4 5.32681 4.31607 4.52136 4.87868 3.9275C5.44129 3.33363 6.20435 3 7 3ZM17 3C17.7956 3 18.5587 3.33363 19.1213 3.9275C19.6839 4.52136 20 5.32681 20 6.16667V18.8333C20 19.6732 19.6839 20.4786 19.1213 21.0725C18.5587 21.6664 17.7956 22 17 22C16.2044 22 15.4413 21.6664 14.8787 21.0725C14.3161 20.4786 14 19.6732 14 18.8333V6.16667C14 5.32681 14.3161 4.52136 14.8787 3.9275C15.4413 3.33363 16.2044 3 17 3Z" fill="white"/>
</svg>
